<?xml version="1.0" standalone="no"?>
<!DOCTYPE svg PUBLIC "-//W3C//DTD SVG 20010904//EN"
 "http://www.w3.org/TR/2001/REC-SVG-20010904/DTD/svg10.dtd">
<svg version="1.0" xmlns="http://www.w3.org/2000/svg"
 width="2623.000000pt" height="723.000000pt" viewBox="0 0 2623.000000 723.000000"
 preserveAspectRatio="xMidYMid meet">

<g transform="translate(0.000000,723.000000) scale(0.100000,-0.100000)"
fill="#000000" stroke="none">
<path d="M18850 6344 c-19 -2 -80 -9 -135 -15 -497 -53 -1023 -276 -1405 -597
-900 -754 -1175 -2033 -665 -3097 305 -638 859 -1118 1546 -1340 516 -167
1095 -178 1605 -31 470 135 927 423 1255 791 l98 110 -252 253 -252 253 -40
-48 c-339 -409 -830 -677 -1337 -732 -913 -100 -1771 482 -2013 1364 -53 194
-68 333 -62 558 8 289 57 493 177 745 287 598 840 989 1502 1061 404 45 857
-56 1198 -266 185 -114 394 -294 507 -438 l32 -40 250 250 c138 137 251 252
251 255 0 3 -39 49 -87 101 -434 469 -961 752 -1578 845 -95 15 -516 27 -595
18z"/>
<path d="M23860 6343 c-495 -49 -850 -197 -1131 -470 -274 -266 -400 -562
-400 -938 -1 -554 237 -943 729 -1194 220 -112 377 -168 832 -301 518 -151
703 -224 860 -341 165 -122 239 -267 240 -465 0 -221 -115 -432 -308 -562
-174 -118 -369 -176 -637 -188 -467 -22 -907 143 -1214 453 l-114 115 -269
-269 -269 -269 58 -64 c260 -287 670 -516 1113 -621 242 -58 612 -83 860 -60
790 75 1366 504 1532 1141 27 100 31 137 35 290 10 329 -52 570 -203 797 -203
305 -542 504 -1179 692 -115 35 -292 87 -392 116 -314 93 -481 164 -628 266
-172 118 -255 271 -255 466 0 110 14 172 62 271 92 194 297 333 578 393 151
32 419 32 570 0 110 -23 257 -75 351 -122 96 -48 261 -164 342 -241 l77 -73
271 271 270 270 -80 77 c-306 293 -763 498 -1229 552 -113 13 -376 18 -472 8z"/>
<path d="M9737 6273 c-4 -6 -1935 -4830 -2014 -5030 -4 -10 82 -13 409 -13
l415 0 238 613 c131 336 244 629 252 650 l15 37 1117 0 1118 0 238 -612 c131
-337 244 -630 252 -650 l15 -38 414 0 c228 0 414 1 414 3 0 1 -454 1136 -1008
2522 l-1008 2520 -431 3 c-238 1 -434 -1 -436 -5z m841 -1961 c221 -559 405
-1027 409 -1039 l5 -23 -826 0 -826 0 13 33 c8 17 193 485 413 1039 219 555
401 1008 404 1008 3 0 186 -458 408 -1018z"/>
<path d="M13950 3755 l0 -2525 400 0 400 0 0 2525 0 2525 -400 0 -400 0 0
-2525z"/>
</g>
</svg>
