<?xml version="1.0" standalone="no"?>
<!DOCTYPE svg PUBLIC "-//W3C//DTD SVG 20010904//EN"
 "http://www.w3.org/TR/2001/REC-SVG-20010904/DTD/svg10.dtd">
<svg version="1.0" xmlns="http://www.w3.org/2000/svg"
 width="600.000000pt" height="237.000000pt" viewBox="0 0 600.000000 237.000000"
 preserveAspectRatio="xMidYMid meet">

<g transform="translate(0.000000,237.000000) scale(0.100000,-0.100000)"
fill="#000000" stroke="none">
<path d="M1210 2210 c-14 -4 -43 -8 -65 -9 -60 -1 -150 -27 -233 -66 -229
-108 -376 -278 -454 -525 -20 -65 -23 -95 -23 -230 0 -143 2 -161 29 -242 52
-159 136 -284 262 -392 238 -203 592 -248 882 -111 341 161 527 530 456 906
-8 46 -20 88 -25 93 -5 6 -9 18 -9 28 0 10 -14 47 -31 81 -125 249 -358 419
-629 458 -122 17 -134 18 -160 9z m235 -105 c117 -32 251 -109 330 -189 89
-89 169 -227 201 -341 29 -106 25 -340 -6 -397 -6 -10 -10 -24 -10 -31 0 -7
-16 -45 -34 -84 -144 -301 -462 -468 -789 -417 -125 20 -223 63 -346 151 -76
55 -171 176 -218 279 -76 167 -84 406 -18 569 21 51 58 129 66 135 3 3 24 31
48 63 45 62 148 152 209 183 20 10 39 20 42 22 2 2 -2 8 -10 13 -12 8 -10 9 6
4 12 -3 46 4 75 15 96 38 167 50 284 45 61 -2 137 -11 170 -20z"/>
<path d="M1099 2073 c-12 -3 -18 -20 -23 -60 -4 -31 -4 -58 -1 -61 3 -3 5 7 5
21 0 15 5 27 10 27 6 0 10 -9 10 -20 0 -17 4 -18 25 -10 20 8 25 6 25 -6 0
-13 3 -14 14 -5 14 12 16 87 3 109 -7 9 -37 12 -68 5z"/>
<path d="M1396 2055 c4 -8 -1 -17 -10 -21 -18 -7 -22 -34 -4 -34 6 0 3 -9 -7
-20 -17 -18 -14 -25 9 -21 4 1 13 -2 20 -7 6 -5 21 -11 32 -14 18 -5 22 -2 19
19 -1 16 2 23 10 19 19 -7 27 5 14 21 -9 10 -8 18 6 33 18 19 17 20 -3 20 -11
0 -24 5 -27 10 -3 6 -19 10 -35 10 -22 0 -28 -4 -24 -15z m42 -96 c-3 -8 -7
-3 -11 10 -4 17 -3 21 5 13 5 -5 8 -16 6 -23z"/>
<path d="M850 1925 c-14 -17 -40 -20 -40 -4 0 5 -5 7 -11 3 -8 -4 -8 -9 0 -17
8 -8 5 -17 -11 -34 -12 -13 -17 -23 -11 -23 6 0 16 7 23 15 18 22 30 9 32 -38
l1 -42 4 38 c4 36 5 37 44 37 21 0 39 5 39 10 0 6 -15 10 -34 10 -42 0 -55 16
-30 35 11 7 16 16 13 19 -3 4 -12 0 -19 -9z"/>
<path d="M1130 1905 c-88 -24 -176 -72 -238 -130 -56 -52 -133 -165 -131 -195
0 -13 1 -13 6 0 10 27 67 81 107 102 29 15 53 19 97 16 55 -3 59 -1 59 18 0
55 48 125 111 164 127 78 298 2 329 -145 6 -29 8 -30 75 -36 39 -3 81 -11 95
-18 42 -22 99 -83 105 -112 4 -16 11 -32 17 -36 8 -4 9 0 4 13 -5 10 -13 33
-19 49 -41 118 -175 242 -319 296 -72 27 -224 34 -298 14z"/>
<path d="M1715 1880 c36 -37 63 -49 36 -16 -7 8 -9 21 -5 27 5 9 2 10 -9 6 -8
-3 -21 1 -27 9 -7 8 -17 14 -23 14 -6 0 6 -18 28 -40z"/>
<path d="M1672 1878 c-7 -7 -12 -18 -12 -25 0 -16 -12 -17 -28 -1 -9 9 -12 9
-12 0 0 -6 17 -27 38 -47 38 -35 65 -48 41 -19 -11 14 -10 18 5 30 10 7 24 15
30 17 6 2 8 7 5 11 -4 4 -20 -1 -37 -11 -38 -22 -49 -13 -26 21 18 28 15 43
-4 24z"/>
<path d="M1291 1707 c-15 -39 -14 -45 5 -19 8 12 13 28 11 35 -3 6 -10 -1 -16
-16z"/>
<path d="M614 1684 c-4 -10 -12 -22 -18 -26 -6 -4 0 -15 15 -26 13 -11 21 -24
17 -28 -4 -4 -15 -1 -23 6 -12 10 -19 10 -27 2 -8 -8 -4 -14 15 -23 15 -7 27
-16 27 -21 0 -18 16 -6 29 23 13 29 14 29 32 13 31 -28 35 -6 5 25 -26 27 -27
30 -9 40 16 9 15 10 -7 11 -15 0 -31 5 -38 12 -9 9 -13 7 -18 -8z m30 -35 c-7
-11 -34 -12 -34 -1 0 14 11 21 26 15 8 -3 11 -9 8 -14z"/>
<path d="M1845 1691 c-3 -5 -19 -12 -35 -16 -37 -8 -40 -32 -4 -32 18 0 22 2
13 8 -7 4 -10 11 -6 15 4 4 16 -1 27 -11 18 -17 19 -20 6 -33 -12 -13 -18 -13
-30 -2 -13 10 -16 10 -16 -4 0 -9 4 -16 9 -16 5 0 7 -8 4 -19 -3 -10 0 -22 6
-25 6 -4 11 -3 11 3 0 6 6 8 14 5 8 -3 17 -1 21 5 3 6 -1 11 -11 11 -14 0 -15
3 -6 12 9 9 15 9 24 0 7 -7 17 -12 23 -12 5 0 1 7 -9 15 -11 8 -17 17 -14 20
7 8 38 -5 38 -16 0 -5 5 -9 10 -9 6 0 10 9 10 20 0 14 -5 18 -17 13 -16 -6
-16 -5 -4 11 11 13 11 20 3 28 -9 9 -12 8 -12 -5 0 -9 -7 -17 -15 -17 -9 0
-12 6 -8 17 4 10 2 14 -5 9 -6 -3 -13 -2 -17 4 -4 6 5 10 19 10 14 0 26 5 26
10 0 13 -47 13 -55 1z"/>
<path d="M1040 1674 c-14 -7 -37 -25 -50 -39 -23 -24 -25 -36 -28 -123 -1 -53
-4 -144 -7 -202 -4 -81 -7 -269 -5 -332 0 -5 4 -8 9 -8 8 0 14 89 24 335 15
347 14 345 73 345 49 0 71 -14 95 -61 16 -32 19 -51 14 -82 -6 -34 -5 -40 6
-29 7 6 32 12 56 12 32 0 43 4 43 15 0 11 -11 15 -39 15 l-38 0 -7 50 c-4 28
-12 50 -18 50 -5 0 -8 9 -5 20 3 11 1 18 -3 15 -5 -3 -11 -1 -15 5 -3 5 -20
10 -36 10 -18 0 -28 4 -24 10 8 14 -15 11 -45 -6z"/>
<path d="M1385 1658 c-33 -19 -42 -32 -59 -88 -10 -30 -20 -61 -22 -67 -3 -7
1 -13 9 -13 16 0 37 41 37 75 0 13 12 37 26 54 45 54 118 39 139 -27 6 -22 14
-280 15 -509 0 -98 2 -113 17 -113 14 0 15 11 10 95 -4 62 -3 94 3 90 6 -3 10
5 10 19 0 14 -4 26 -9 26 -5 0 -10 48 -11 108 -2 181 -12 315 -24 327 -34 35
-102 46 -141 23z"/>
<path d="M690 1644 c0 -8 5 -12 10 -9 6 3 10 10 10 16 0 5 -4 9 -10 9 -5 0
-10 -7 -10 -16z"/>
<path d="M1240 1646 c0 -9 7 -16 16 -16 17 0 14 22 -4 28 -7 2 -12 -3 -12 -12z"/>
<path d="M1580 1630 c0 -5 7 -10 16 -10 8 0 12 5 9 10 -3 6 -10 10 -16 10 -5
0 -9 -4 -9 -10z"/>
<path d="M1280 1589 c0 -5 5 -7 10 -4 6 3 10 8 10 11 0 2 -4 4 -10 4 -5 0 -10
-5 -10 -11z"/>
<path d="M1465 1590 c3 -5 11 -10 16 -10 6 0 7 5 4 10 -3 6 -11 10 -16 10 -6
0 -7 -4 -4 -10z"/>
<path d="M666 1581 c-4 -7 -5 -15 -2 -18 9 -9 19 4 14 18 -4 11 -6 11 -12 0z"/>
<path d="M841 1556 c-9 -11 -6 -12 14 -8 14 2 25 8 25 13 0 14 -26 11 -39 -5z"/>
<path d="M1414 1559 c-35 -10 -48 -23 -58 -56 -6 -18 -1 -25 23 -38 27 -13 31
-14 31 -1 0 8 -8 19 -17 25 -14 8 -15 12 -4 25 7 9 19 16 26 16 38 0 46 -61
48 -380 1 -138 6 -214 12 -212 13 3 16 471 3 534 -5 26 -16 52 -24 59 -11 9
-12 14 -3 19 19 12 -4 18 -37 9z"/>
<path d="M1010 1548 c0 -4 6 -8 14 -8 11 0 12 -10 5 -47 -5 -27 -11 -162 -13
-300 -3 -210 -1 -253 10 -253 11 0 14 30 14 158 0 86 4 163 8 170 5 7 4 34 -1
61 -6 26 -7 56 -2 67 4 10 8 41 9 68 1 65 26 84 61 44 21 -24 23 -25 28 -8 9
35 -15 52 -76 54 -31 1 -57 -1 -57 -6z"/>
<path d="M1767 1471 c-9 -73 -42 -137 -89 -171 -22 -16 -44 -30 -50 -32 -7 -3
-4 -17 8 -38 23 -44 23 -135 1 -182 -41 -86 -114 -133 -207 -133 -67 0 -95 12
-151 62 l-26 23 -19 -21 c-58 -64 -180 -83 -261 -41 -104 54 -149 176 -106
284 16 40 16 42 -1 52 -72 43 -114 105 -123 177 -9 73 -23 40 -23 -55 0 -254
160 -469 395 -531 173 -45 380 4 503 119 48 45 120 157 144 223 22 65 33 207
21 273 l-9 45 -7 -54z"/>
<path d="M1175 1460 c-4 -6 -15 -8 -25 -5 -10 3 -22 0 -26 -6 -5 -9 -2 -10 10
-6 10 4 19 1 22 -8 4 -8 17 -15 29 -15 57 0 27 -28 -47 -46 -16 -3 -26 -10
-23 -14 6 -10 64 -23 92 -21 29 3 38 -16 18 -39 -20 -22 -33 -100 -16 -100 6
0 11 14 11 32 0 40 11 30 16 -14 2 -18 6 -43 9 -55 3 -13 1 -23 -5 -23 -5 0
-10 9 -10 21 0 12 -5 19 -12 16 -7 -2 -12 -10 -10 -17 2 -8 -4 -11 -18 -7 -27
7 -26 -7 3 -25 33 -21 88 -21 117 1 l24 19 -22 45 c-12 24 -22 56 -22 70 0 14
-4 29 -10 32 -5 3 -10 15 -10 26 0 16 7 19 48 19 55 0 82 20 82 62 0 22 -26
58 -43 58 -14 0 -7 -38 8 -44 26 -10 16 -25 -20 -32 -19 -3 -38 -10 -41 -15
-3 -5 -15 -9 -28 -9 -12 0 -26 -4 -32 -10 -6 -6 -15 -6 -24 0 -20 13 -4 23 65
40 51 12 53 14 44 37 -5 14 -7 29 -3 34 3 5 -27 9 -70 9 -41 0 -78 -5 -81 -10z
m125 -19 c0 -14 -5 -18 -20 -14 -21 5 -25 15 -13 26 13 14 33 6 33 -12z m-22
-205 c-3 -12 2 -28 10 -36 11 -10 12 -15 3 -18 -18 -6 -22 1 -28 49 -5 32 -3
40 6 34 7 -4 11 -17 9 -29z m2 -96 c0 -5 -4 -10 -10 -10 -5 0 -10 5 -10 10 0
6 5 10 10 10 6 0 10 -4 10 -10z"/>
<path d="M1127 1411 c-3 -13 -1 -18 9 -14 7 2 10 11 7 19 -7 19 -10 18 -16 -5z"/>
<path d="M590 1385 c0 -8 7 -15 15 -15 8 0 15 7 15 15 0 8 -7 15 -15 15 -8 0
-15 -7 -15 -15z"/>
<path d="M1890 1385 c0 -10 7 -15 18 -13 21 4 19 22 -2 26 -10 2 -16 -3 -16
-13z"/>
<path d="M910 1365 c-7 -8 -9 -15 -5 -15 5 0 1 -8 -8 -18 -10 -10 -14 -22 -10
-25 11 -12 23 -8 23 7 0 8 7 22 16 31 11 11 13 20 7 26 -6 6 -14 4 -23 -6z"/>
<path d="M1575 1370 c3 -5 8 -10 11 -10 2 0 4 5 4 10 0 6 -5 10 -11 10 -5 0
-7 -4 -4 -10z"/>
<path d="M1407 1309 c7 -7 15 -10 18 -7 3 3 -2 9 -12 12 -14 6 -15 5 -6 -5z"/>
<path d="M1156 1293 c-6 -14 -5 -15 5 -6 7 7 10 15 7 18 -3 3 -9 -2 -12 -12z"/>
<path d="M1849 1270 c-20 -22 1 -43 34 -35 15 4 30 1 40 -9 21 -21 24 -20 29
8 5 23 2 24 -38 21 -31 -2 -41 1 -38 10 8 20 -9 24 -27 5z"/>
<path d="M565 1250 c10 -11 24 -20 32 -20 18 0 17 -7 -7 -40 -11 -15 -17 -30
-13 -34 3 -3 17 10 30 29 13 19 35 38 48 41 35 9 31 25 -4 18 -18 -4 -42 0
-62 10 -42 21 -46 20 -24 -4z"/>
<path d="M1820 1212 c0 -26 54 -60 65 -41 4 5 11 7 16 3 5 -3 7 -10 4 -15 -4
-5 -1 -9 4 -9 6 0 11 5 11 11 0 5 5 7 10 4 6 -3 10 -1 10 5 0 16 -62 50 -92
50 -16 0 -28 -4 -28 -8z"/>
<path d="M665 1090 c-6 -10 1 -14 18 -11 5 1 5 -4 2 -10 -4 -6 -15 -9 -25 -6
-14 3 -16 0 -12 -17 5 -19 4 -19 -11 -7 -9 7 -17 9 -17 3 0 -5 7 -15 15 -22 8
-7 15 -18 15 -26 0 -7 5 -16 10 -19 6 -4 9 -3 8 2 -2 4 1 9 6 10 5 1 12 7 17
15 6 10 11 10 21 0 18 -18 38 -15 38 7 0 11 5 21 11 23 7 2 4 15 -8 36 -14 25
-24 32 -50 32 -17 0 -35 -4 -38 -10z m53 -51 c7 -12 11 -23 8 -26 -7 -7 -36
23 -36 36 0 18 14 13 28 -10z m32 11 c0 -5 -4 -10 -10 -10 -5 0 -10 5 -10 10
0 6 5 10 10 10 6 0 10 -4 10 -10z m-70 -30 c0 -5 -4 -10 -10 -10 -5 0 -10 5
-10 10 0 6 5 10 10 10 6 0 10 -4 10 -10z"/>
<path d="M1750 1060 l-21 -29 25 -16 c13 -9 26 -25 29 -35 7 -29 35 -36 52
-14 9 13 10 23 3 31 -8 10 -6 13 8 13 11 0 25 9 32 20 11 18 9 22 -13 32 -22
10 -27 8 -39 -8 -11 -15 -12 -22 -3 -33 10 -12 9 -14 -4 -9 -9 4 -22 1 -29 -5
-10 -10 -12 -7 -8 9 4 17 2 20 -13 17 -23 -6 -25 10 -3 28 13 10 17 10 24 -1
5 -8 12 -11 16 -7 8 7 -14 37 -27 37 -4 0 -17 -13 -29 -30z m106 -26 c-5 -14
-9 -15 -19 -5 -9 9 -9 14 3 21 18 11 24 6 16 -16z m-28 -52 c2 -7 -3 -12 -12
-12 -9 0 -16 7 -16 16 0 17 22 14 28 -4z"/>
<path d="M1260 1050 c0 -5 5 -10 10 -10 6 0 10 5 10 10 0 6 -4 10 -10 10 -5 0
-10 -4 -10 -10z"/>
<path d="M795 904 c-20 -25 -36 -46 -34 -48 2 -1 24 -17 48 -36 l44 -34 21 26
c11 14 29 35 39 48 10 12 15 25 12 28 -4 4 -12 -1 -19 -12 -6 -10 -19 -28 -28
-40 -16 -21 -17 -21 -16 12 1 23 6 32 18 32 9 0 20 3 23 7 9 8 -42 63 -59 63
-6 0 -28 -20 -49 -46z m70 16 c3 -6 -1 -18 -10 -27 -14 -13 -18 -14 -25 -3 -4
7 -6 19 -3 27 6 15 29 17 38 3z m-25 -62 c0 -5 -7 -8 -15 -8 -8 0 -15 -5 -15
-11 0 -8 -4 -8 -15 1 -22 19 2 52 27 37 10 -7 18 -15 18 -19z"/>
<path d="M1650 944 c0 -7 9 -22 21 -35 14 -17 19 -19 15 -7 -3 12 -1 15 10 11
7 -3 14 -10 14 -16 0 -6 3 -7 7 -4 9 10 -28 48 -39 40 -6 -3 -14 1 -19 8 -5 8
-9 9 -9 3z"/>
<path d="M1610 911 c0 -5 -9 -13 -21 -16 -16 -5 -18 -9 -8 -21 7 -8 18 -13 26
-10 8 4 11 1 7 -5 -5 -9 7 -44 23 -68 2 -3 15 6 29 20 14 13 29 24 32 23 13
-2 42 21 42 33 0 18 -10 16 -25 -3 -11 -15 -16 -13 -52 20 -42 37 -53 43 -53
27z"/>
<path d="M1020 821 c0 -6 -7 -11 -15 -11 -21 0 -19 -27 3 -39 16 -10 16 -10 0
-11 -10 0 -18 -4 -18 -10 0 -5 4 -10 10 -10 5 0 7 -6 4 -14 -3 -8 4 -16 20
-20 14 -3 26 -11 26 -16 0 -6 5 -10 12 -10 9 0 9 3 1 11 -16 16 -4 47 20 51
16 2 22 11 23 35 1 19 -4 34 -12 37 -8 3 -14 1 -14 -3 0 -5 6 -12 13 -14 6 -3
2 -6 -9 -6 -15 -1 -21 5 -20 16 0 12 -7 19 -21 21 -13 2 -23 -1 -23 -7z m70
-56 c0 -1 -11 -5 -25 -7 -16 -3 -25 -1 -25 7 0 8 9 10 25 7 14 -2 25 -6 25 -7z
m-50 -35 c0 -5 -2 -10 -4 -10 -3 0 -8 5 -11 10 -3 6 -1 10 4 10 6 0 11 -4 11
-10z"/>
<path d="M1438 816 c-46 -14 -54 -22 -39 -39 6 -8 9 -21 6 -29 -4 -11 3 -13
32 -10 29 2 34 1 23 -7 -13 -10 -13 -12 0 -21 21 -14 30 -12 30 4 0 8 8 17 18
19 16 4 16 5 0 6 -10 0 -18 7 -18 15 0 7 -7 20 -16 27 -14 11 -18 11 -29 -4
-9 -13 -15 -15 -20 -7 -9 14 2 25 32 34 16 5 23 2 28 -13 3 -10 15 -21 25 -24
24 -6 26 6 5 23 -8 7 -15 19 -15 26 0 16 -11 16 -62 0z"/>
<path d="M1240 725 c0 -8 7 -15 15 -15 8 0 15 7 15 15 0 8 -7 15 -15 15 -8 0
-15 -7 -15 -15z"/>
<path d="M3550 2053 c0 -13 17 -31 50 -51 52 -33 62 -51 32 -59 -10 -2 -24
-18 -31 -34 -7 -17 -21 -33 -30 -36 -9 -3 -35 -18 -58 -32 -51 -31 -59 -70
-19 -96 22 -15 29 -15 71 0 26 8 56 13 67 9 17 -5 19 -12 13 -42 -9 -50 -20
-60 -48 -43 -12 8 -30 19 -39 25 -28 17 -32 -1 -9 -36 11 -18 32 -56 45 -84
16 -33 37 -58 58 -71 l34 -20 27 23 c15 13 27 33 27 44 0 39 19 62 46 56 13
-4 24 -2 24 3 0 4 15 25 34 46 19 20 36 46 38 58 5 27 -17 105 -37 131 -20 26
-37 12 -24 -22 17 -44 3 -88 -36 -112 -19 -12 -48 -38 -65 -58 -23 -28 -32
-34 -42 -24 -9 9 -9 19 0 45 6 17 9 42 6 53 -3 12 2 36 11 54 16 31 62 79 77
80 6 0 76 45 86 55 2 2 -2 19 -9 38 -9 25 -17 33 -30 30 -9 -3 -26 3 -36 14
-27 26 -61 41 -123 53 -30 5 -67 13 -82 16 -23 5 -28 3 -28 -13z m186 -118
c-11 -8 -24 -15 -29 -15 -4 0 -23 -11 -42 -26 -20 -15 -36 -21 -39 -15 -10 15
73 71 103 71 25 -1 25 -1 7 -15z"/>
<path d="M5160 2045 c0 -22 3 -25 25 -19 20 5 25 2 30 -18 10 -39 -47 -254
-75 -282 -13 -13 -13 -29 0 -21 6 3 10 1 10 -4 0 -6 -5 -11 -10 -11 -33 0 -73
-75 -49 -92 11 -7 11 -8 -2 -6 -14 3 -79 -52 -79 -67 0 -3 -18 -30 -40 -60
-22 -29 -49 -72 -61 -94 -11 -23 -25 -41 -30 -41 -5 0 -15 -12 -21 -26 -7 -15
-23 -27 -40 -31 -40 -8 -45 -23 -8 -23 33 0 80 38 80 64 0 9 9 20 20 26 11 6
20 17 20 25 0 20 46 53 90 65 57 15 80 40 80 88 0 30 5 42 18 46 10 4 24 29
36 68 11 33 28 68 38 77 10 8 18 20 18 25 0 5 13 30 29 55 20 33 30 64 35 110
7 75 -2 141 -19 141 -7 0 -15 7 -19 15 -3 9 -19 15 -41 15 -31 0 -35 -3 -35
-25z"/>
<path d="M2700 2008 c-22 -24 -36 -59 -45 -111 -4 -28 -12 -40 -31 -48 -14 -5
-29 -7 -34 -4 -4 3 -13 -2 -20 -10 -6 -7 -18 -11 -27 -8 -8 3 -19 0 -24 -8 -7
-11 -12 -12 -29 -1 -53 33 -56 -17 -4 -86 1 -2 20 -8 42 -13 36 -8 66 -4 116
16 16 7 18 5 11 -26 -4 -19 -14 -42 -23 -52 -10 -11 -17 -37 -17 -62 -1 -35
-7 -48 -32 -69 -17 -14 -33 -37 -37 -50 -3 -13 -27 -41 -53 -62 -25 -21 -58
-49 -72 -62 -14 -14 -50 -42 -78 -64 -57 -42 -77 -67 -87 -110 -5 -21 -3 -28
9 -28 8 0 15 5 15 10 0 6 5 10 11 10 6 0 29 16 50 35 21 19 68 49 104 66 36
18 65 36 65 41 0 4 5 8 11 8 6 0 27 14 46 30 18 17 38 30 44 30 6 0 31 18 56
40 25 22 52 40 59 40 30 0 60 -113 32 -123 -10 -3 -10 -7 0 -19 17 -21 -10
-68 -52 -88 -37 -18 -44 -49 -17 -74 17 -16 23 -17 36 -6 9 7 18 10 21 7 10
-9 -6 -47 -20 -47 -18 0 -76 -63 -76 -83 0 -21 28 -22 54 -2 11 8 25 15 30 15
7 0 8 -3 1 -8 -17 -12 -34 -74 -36 -130 -2 -42 2 -58 18 -74 20 -19 22 -19 47
-3 14 10 26 21 26 26 0 5 5 9 10 9 6 0 10 -15 10 -34 0 -19 4 -37 10 -41 5 -3
7 -12 4 -19 -3 -7 2 -19 11 -26 34 -28 225 49 211 86 -3 7 -1 16 4 19 19 12
10 31 -21 42 -29 11 -31 10 -26 -7 4 -14 -4 -25 -30 -40 -20 -11 -41 -19 -47
-17 -6 2 -19 0 -28 -4 -10 -5 -19 -5 -22 0 -7 11 28 96 42 105 33 20 19 119
-19 131 -10 3 -21 16 -25 28 -4 12 -11 25 -16 28 -9 6 1 112 17 186 9 40 121
87 263 110 18 3 44 16 57 29 13 13 29 24 34 24 16 0 41 55 41 90 0 17 -8 40
-19 51 -25 27 -138 54 -169 39 -13 -5 -57 -10 -99 -9 -65 1 -79 4 -94 23 -10
11 -18 33 -19 48 0 18 -9 33 -25 44 -14 9 -25 20 -25 24 0 4 27 10 60 14 33 4
62 11 65 15 2 5 22 12 42 16 46 8 93 50 93 82 0 36 -107 83 -124 54 -3 -5 -23
-11 -43 -14 -21 -3 -50 -8 -64 -12 -22 -6 -27 -3 -32 17 -17 66 -82 103 -117
66z m480 -462 c0 -23 -69 -71 -159 -110 -87 -38 -119 -41 -103 -9 5 10 13 40
16 66 9 60 20 66 149 66 77 1 97 -2 97 -13z m-322 -53 c-4 -22 -22 -20 -26 1
-2 10 3 16 13 16 10 0 15 -7 13 -17z"/>
<path d="M4870 1923 c0 -5 9 -41 20 -82 11 -41 20 -96 20 -121 0 -65 26 -147
51 -161 33 -17 52 -4 46 31 -4 16 -2 55 4 87 9 47 8 59 -4 68 -8 5 -17 21 -22
35 -4 14 -14 35 -22 48 -8 13 -11 32 -7 44 5 17 3 20 -10 15 -10 -4 -22 2 -32
18 -15 23 -44 35 -44 18z"/>
<path d="M3933 1813 c3 -16 8 -37 11 -48 5 -15 -10 -39 -58 -95 -36 -41 -65
-81 -66 -87 0 -11 -20 -18 -42 -14 -5 0 -8 -8 -8 -19 0 -22 -64 -90 -84 -90
-8 0 -39 -24 -71 -54 -51 -47 -56 -55 -46 -74 14 -26 43 -43 57 -34 15 11 44
60 44 75 0 14 54 75 90 100 18 12 26 13 42 4 17 -10 23 -7 49 23 16 19 29 46
29 60 0 16 16 42 43 70 23 25 53 66 66 91 l24 46 -28 36 c-34 45 -60 50 -52
10z"/>
<path d="M4686 1744 c-7 -17 2 -90 26 -235 12 -73 6 -114 -22 -144 -18 -20
-43 -113 -34 -127 3 -4 18 -8 34 -8 29 0 80 48 101 94 6 11 26 31 44 44 40 25
44 46 14 78 -13 14 -22 41 -26 78 -6 61 -16 75 -38 56 -22 -18 -48 6 -41 36 5
18 3 22 -9 18 -11 -4 -15 1 -16 17 -3 86 -5 103 -15 106 -6 2 -15 -4 -18 -13z"/>
<path d="M3270 1702 c0 -5 7 -17 15 -28 8 -10 15 -31 15 -46 0 -28 1 -28 65
-28 l65 0 0 30 c0 23 -7 33 -30 45 -16 8 -40 15 -54 15 -14 0 -28 5 -31 10 -7
12 -45 14 -45 2z"/>
<path d="M4807 1619 c4 -13 8 -18 11 -10 2 7 -1 18 -6 23 -8 8 -9 4 -5 -13z"/>
<path d="M4182 1593 c6 -21 11 -51 12 -68 1 -31 0 -32 -151 -112 -40 -20 -41
-30 -8 -45 19 -9 31 -8 50 2 20 11 28 10 50 -4 23 -15 28 -15 55 -1 16 8 35
15 42 15 29 0 210 -107 234 -139 13 -16 44 -8 44 11 -1 39 -119 120 -245 168
-56 21 -11 59 88 74 53 8 58 17 22 40 -33 22 -48 20 -75 -9 -34 -36 -50 -32
-50 11 0 26 -8 43 -29 65 -40 40 -51 37 -39 -8z"/>
<path d="M5260 1510 c-8 -5 -29 -10 -46 -10 -17 0 -37 -7 -44 -15 -7 -8 -19
-15 -26 -15 -8 0 -14 -4 -14 -10 0 -6 29 -8 74 -4 60 4 75 2 79 -10 4 -9 0
-22 -8 -30 -43 -42 5 -42 81 1 49 28 56 51 24 83 -22 22 -93 28 -120 10z"/>
<path d="M3794 1404 c-21 -31 -46 -63 -54 -72 -9 -10 -33 -39 -55 -66 -37 -47
-38 -50 -24 -75 24 -42 59 -26 94 44 6 11 19 21 28 23 16 3 17 -1 11 -32 -8
-45 6 -46 30 -2 10 19 26 36 36 39 23 6 54 53 47 70 -3 8 -22 22 -42 31 -38
18 -40 26 -19 80 13 35 -15 13 -52 -40z"/>
<path d="M3283 1347 c-20 -42 19 -164 70 -223 28 -32 73 -50 91 -35 23 19 25
82 4 116 -10 17 -18 41 -18 55 0 30 -35 110 -48 110 -9 0 -20 -43 -25 -97 -4
-46 -35 -14 -52 53 -11 43 -12 44 -22 21z"/>
<path d="M4081 1331 c-17 -31 -13 -68 12 -96 25 -29 57 -26 57 6 0 10 5 19 10
19 6 0 10 7 10 15 0 9 7 27 16 40 20 30 5 33 -21 5 -23 -26 -33 -25 -37 2 -4
29 -34 35 -47 9z"/>
<path d="M4925 1324 c-15 -23 -15 -28 -2 -42 8 -10 18 -27 21 -39 4 -11 21
-28 39 -37 51 -26 70 -44 63 -61 -5 -13 -15 -15 -48 -11 -39 5 -45 3 -67 -25
-24 -31 -24 -32 -6 -45 13 -10 22 -11 29 -4 10 10 96 15 96 5 0 -13 -51 -178
-60 -195 -13 -24 -33 -26 -54 -4 -20 19 -20 14 0 -36 14 -35 20 -40 48 -40 24
0 38 8 54 30 12 16 22 37 22 47 0 27 43 146 58 162 7 8 11 23 8 35 -2 12 -8
42 -11 69 -6 37 -17 58 -51 96 -24 27 -44 53 -44 58 0 13 -54 63 -67 63 -6 0
-18 -12 -28 -26z"/>
<path d="M3910 1201 c-14 -10 -46 -21 -72 -23 -36 -4 -53 -12 -71 -34 -14 -16
-39 -45 -56 -64 -38 -43 -40 -72 -6 -90 24 -13 28 -12 50 13 14 14 25 30 25
35 0 15 142 143 154 139 6 -2 18 -23 27 -48 9 -24 19 -52 24 -62 12 -28 0 -75
-39 -159 -20 -42 -36 -81 -36 -86 0 -13 -117 -132 -129 -132 -6 0 -11 -7 -11
-15 0 -21 26 -19 47 5 10 10 27 23 38 27 64 27 85 50 134 148 28 55 54 119 57
142 10 66 -40 182 -79 183 -10 0 -21 9 -25 19 -7 19 -8 19 -32 2z"/>
<path d="M5190 1075 c-13 -15 -7 -45 9 -45 11 0 21 49 11 55 -4 3 -13 -2 -20
-10z"/>
<path d="M3430 799 c0 -5 5 -7 10 -4 6 3 10 8 10 11 0 2 -4 4 -10 4 -5 0 -10
-5 -10 -11z"/>
<path d="M3450 781 c0 -15 98 -84 150 -105 25 -10 53 -22 63 -27 18 -10 37 -4
37 11 0 5 -24 16 -52 26 -52 17 -123 57 -143 79 -14 17 -55 29 -55 16z"/>
<path d="M2678 502 c-23 -5 -24 -48 -2 -56 19 -7 44 10 44 29 0 18 -22 32 -42
27z"/>
<path d="M5127 502 c-26 -5 -19 -57 7 -57 28 0 45 31 26 48 -8 8 -23 12 -33 9z"/>
<path d="M494 487 c15 -11 17 -28 14 -140 l-3 -127 24 0 c19 0 21 3 12 14 -8
9 -11 48 -9 111 l3 97 89 -111 c49 -61 93 -111 97 -111 5 0 9 24 9 54 0 43 -4
56 -17 61 -10 3 -38 33 -63 66 -71 96 -75 99 -127 99 -41 0 -44 -2 -29 -13z"/>
<path d="M690 493 c8 -4 20 -12 25 -20 8 -11 13 -10 27 7 17 20 17 20 -25 19
-23 0 -35 -3 -27 -6z"/>
<path d="M1173 484 c-8 -20 21 -49 41 -41 9 4 16 18 16 32 0 20 -5 25 -25 25
-14 0 -28 -7 -32 -16z"/>
<path d="M1958 491 c10 -6 12 -39 10 -139 l-3 -132 35 0 35 0 -3 140 -3 140
-42 0 c-26 0 -37 -3 -29 -9z"/>
<path d="M2176 484 c-3 -9 -6 -25 -6 -37 0 -22 3 -20 35 30 1 2 16 6 34 9 l33
7 -4 -139 -3 -139 41 3 40 4 -5 40 c-3 22 -5 83 -3 134 3 91 4 94 27 94 14 0
32 -11 44 -27 l20 -28 1 33 0 32 -124 0 c-104 0 -125 -3 -130 -16z"/>
<path d="M3651 493 c22 -5 29 -45 29 -153 0 -73 3 -90 19 -104 31 -28 89 -37
129 -20 55 23 61 38 62 149 0 102 4 118 30 128 8 3 -5 5 -30 5 -25 0 -39 -2
-32 -5 8 -3 12 -37 12 -119 l0 -114 -32 -20 c-42 -25 -44 -25 -73 5 -23 22
-25 31 -25 129 0 89 3 107 18 115 13 8 -1 10 -53 10 -38 -1 -63 -3 -54 -6z"/>
<path d="M4214 485 c-7 -18 12 -45 32 -45 16 0 33 30 27 48 -7 17 -52 15 -59
-3z"/>
<path d="M5265 461 c-3 -11 -17 -27 -31 -36 -19 -12 -23 -20 -15 -28 6 -6 11
-44 11 -83 0 -94 25 -123 81 -94 25 14 25 30 -1 23 -19 -5 -20 0 -20 71 0 69
2 76 20 76 11 0 20 5 20 10 0 6 -9 10 -20 10 -16 0 -20 7 -20 35 0 38 -15 47
-25 16z"/>
<path d="M1050 437 c-24 -30 -25 -37 -20 -120 3 -63 9 -90 20 -97 22 -14 43
-12 66 5 19 15 19 16 -1 13 -18 -3 -20 4 -23 75 -3 71 -1 77 17 77 31 0 34 18
4 22 -24 3 -28 7 -25 31 4 36 -7 34 -38 -6z"/>
<path d="M856 409 c-51 -14 -67 -69 -20 -69 24 0 26 3 21 30 -6 27 -4 30 18
30 21 0 25 -5 25 -29 0 -24 -9 -36 -42 -58 -53 -36 -67 -57 -52 -80 8 -12 22
-17 40 -15 51 5 69 4 89 -2 23 -7 58 12 38 21 -9 3 -13 29 -13 78 0 46 -5 76
-12 82 -19 15 -60 20 -92 12z m44 -124 c0 -28 -4 -35 -20 -35 -25 0 -26 26 -3
52 22 24 23 23 23 -17z"/>
<path d="M1331 406 c-32 -17 -50 -53 -51 -96 0 -42 20 -75 61 -95 26 -14 32
-14 58 0 40 20 61 53 61 93 0 48 -24 88 -61 101 -39 13 -38 13 -68 -3z m63
-22 c13 -33 6 -141 -9 -154 -28 -23 -45 5 -45 75 0 76 6 95 30 95 10 0 21 -7
24 -16z"/>
<path d="M1790 407 c-27 -9 -36 -18 -38 -39 -3 -24 0 -28 23 -28 23 0 26 4 23
28 -2 22 1 28 20 30 19 3 22 -1 22 -27 0 -24 -8 -35 -42 -58 -53 -36 -67 -57
-52 -80 8 -12 22 -17 40 -15 51 5 69 4 89 -2 23 -7 58 12 38 21 -9 3 -13 29
-13 78 0 46 -5 76 -12 82 -23 18 -62 22 -98 10z m50 -122 c0 -28 -4 -35 -20
-35 -25 0 -26 26 -3 52 22 24 23 23 23 -17z"/>
<path d="M2481 407 c-46 -16 -62 -43 -37 -62 26 -20 48 -2 40 32 -6 22 -4 24
17 21 17 -2 25 -10 27 -30 3 -22 -4 -31 -42 -53 -52 -31 -69 -67 -42 -93 14
-14 21 -14 51 -3 28 10 39 10 50 1 8 -6 22 -10 32 -8 16 3 18 13 15 78 -4 98
-7 106 -44 119 -17 6 -31 11 -32 10 -1 0 -16 -5 -35 -12z m49 -123 c0 -31 -3
-35 -22 -32 -29 4 -32 20 -8 46 28 29 30 28 30 -14z"/>
<path d="M3133 408 c-42 -11 -63 -46 -38 -64 27 -20 47 -6 40 28 -6 27 -5 29
17 26 32 -4 39 -63 9 -73 -33 -10 -81 -55 -81 -75 0 -32 27 -45 66 -31 27 10
38 10 49 1 16 -13 65 -6 65 10 0 6 -4 10 -10 10 -6 0 -10 31 -10 74 0 47 -5
77 -12 83 -20 16 -60 20 -95 11z m47 -123 c0 -28 -4 -35 -20 -35 -25 0 -26 26
-3 52 22 24 23 23 23 -17z"/>
<path d="M4964 412 c-28 -4 -46 -45 -35 -75 5 -13 25 -35 45 -51 39 -29 46
-53 19 -63 -10 -4 -24 3 -40 21 l-23 27 0 -28 c0 -26 3 -28 45 -31 57 -3 89
24 79 66 -9 38 -11 40 -55 67 -25 17 -36 30 -33 40 9 22 41 18 58 -7 18 -25
31 -19 22 10 -7 20 -41 30 -82 24z"/>
<path d="M1168 315 l3 -95 32 0 32 0 -3 95 -3 95 -32 0 -32 0 3 -95z"/>
<path d="M1510 390 c5 -10 8 -52 7 -94 l-3 -76 30 0 31 0 0 77 0 78 28 3 29 3
-4 -80 -3 -81 32 0 32 0 -3 83 c-1 46 -5 88 -9 94 -4 7 -41 11 -92 11 -79 0
-84 -1 -75 -18z"/>
<path d="M2650 396 c7 -10 10 -43 8 -95 l-3 -81 30 0 31 0 2 95 1 95 -41 0
c-34 0 -39 -2 -28 -14z"/>
<path d="M2761 394 c8 -9 28 -53 44 -97 17 -44 34 -81 40 -81 5 -1 14 15 20
34 5 19 14 41 19 48 4 7 5 16 1 20 -3 3 -10 0 -14 -7 -6 -9 -14 2 -25 34 -8
26 -13 51 -10 56 3 5 -16 9 -42 9 -42 0 -45 -2 -33 -16z"/>
<path d="M2881 394 c8 -9 12 -28 11 -42 -2 -14 0 -22 6 -18 5 3 15 -9 22 -27
24 -66 41 -99 47 -93 11 10 42 111 36 116 -3 3 -8 -1 -10 -7 -8 -24 -20 -13
-32 28 -10 34 -10 43 1 50 8 5 -8 9 -41 9 -48 0 -52 -2 -40 -16z"/>
<path d="M3008 397 c7 -8 7 -18 2 -27 -13 -20 -12 -30 0 -30 6 0 10 8 10 17 0
9 7 25 17 35 15 17 15 18 -12 18 -21 0 -25 -3 -17 -13z"/>
<path d="M3302 396 c9 -9 12 -36 8 -94 l-5 -82 35 0 35 0 -3 74 c-3 65 -1 76
16 85 11 6 22 7 26 4 3 -3 6 -42 6 -85 l0 -78 33 0 32 0 -3 82 c-2 46 -8 88
-13 94 -5 7 -44 12 -94 12 -68 1 -83 -2 -73 -12z"/>
<path d="M3970 395 c8 -10 11 -43 8 -95 l-3 -80 30 0 31 0 -4 68 c-3 73 2 88
33 94 19 3 20 -3 20 -80 l0 -82 33 0 32 0 -1 68 c-2 118 -1 117 -103 119 -74
1 -86 0 -76 -12z"/>
<path d="M4198 403 c8 -3 12 -32 12 -94 l0 -89 36 0 c29 0 35 3 30 16 -3 9 -6
51 -6 95 l0 79 -42 -1 c-24 0 -37 -3 -30 -6z"/>
<path d="M4329 378 c11 -18 29 -58 42 -88 34 -83 43 -89 63 -41 19 50 19 51 4
51 -7 0 -22 21 -32 46 -16 39 -17 47 -5 55 9 6 -4 9 -38 9 l-52 0 18 -32z"/>
<path d="M4458 403 c14 -6 16 -49 2 -58 -12 -8 -13 -35 -1 -35 5 0 11 14 15
32 3 17 14 40 23 50 15 17 14 18 -18 17 -19 0 -28 -3 -21 -6z"/>
<path d="M4561 384 c-31 -39 -29 -117 4 -149 30 -31 74 -32 106 -5 l24 20 -28
-6 c-31 -7 -54 8 -68 44 -7 19 -5 27 8 38 17 13 17 13 1 14 -21 0 -23 19 -4
45 8 11 19 16 30 12 19 -7 21 -48 4 -65 -9 -9 -4 -12 25 -12 40 0 47 13 26 53
-16 30 -28 37 -71 37 -28 0 -42 -6 -57 -26z"/>
<path d="M4740 396 c7 -10 10 -43 8 -95 l-3 -81 33 0 32 0 0 63 c0 74 9 92 42
84 30 -8 53 6 45 27 -8 21 -45 21 -69 -1 -17 -15 -18 -15 -18 0 0 13 -10 17
-41 17 -35 0 -40 -2 -29 -14z"/>
<path d="M5100 395 c8 -10 11 -41 8 -95 l-3 -80 30 0 31 0 -2 88 c-2 48 -3 90
-3 95 -1 4 -17 7 -37 7 -31 0 -35 -2 -24 -15z"/>
<path d="M5356 392 c9 -10 27 -45 41 -78 14 -32 29 -67 34 -76 5 -10 9 -30 10
-45 0 -24 3 -20 20 22 11 28 26 64 34 82 8 17 15 36 15 42 0 14 22 54 35 63 6
4 -6 7 -25 7 -19 0 -29 -3 -22 -6 17 -7 15 -24 -7 -74 l-20 -44 -20 45 c-24
53 -26 66 -8 73 6 3 -14 6 -45 6 -55 1 -57 0 -42 -17z"/>
<path d="M721 364 c0 -11 3 -14 6 -6 3 7 2 16 -1 19 -3 4 -6 -2 -5 -13z"/>
<path d="M5354 165 c-8 -19 13 -45 36 -45 9 0 25 10 36 21 19 21 19 22 -2 15
-15 -4 -24 -2 -28 9 -7 19 -35 20 -42 0z"/>
</g>
</svg>
